<svg xmlns="http://www.w3.org/2000/svg" width="764.08276" height="206.33789" viewBox="0 0 764.08276 206.33789"><path d="M375.821-74.668h-18s-14.376 16.147-17.072 19.164v-19.164h-19.542c-.608 0-.449.518 0 .927a9.281 9.281 0 0 1 3.594 6.308v37.524a4.02 4.02 0 0 0 4.131 4.246h11.826v-19.15c2.678 3.018 17.071 19.15 17.071 19.15h18.001s-20.19-23.298-21.246-24.513c1.055-1.197 21.246-24.483 21.246-24.483M522.803-50.147c0 17.03 11.712 25.935 23.304 25.935a35.164 35.164 0 0 0 19.506-5.856l.398-.272v-22.136h-15.315v9.039h5.773v6.111a16.377 16.377 0 0 1-9.149 2.707c-6.999 0-14.065-5.283-14.065-15.395 0-9.457 5.247-15.831 13.102-15.831a26.82 26.82 0 0 1 14.789 5.105l.75.566 4.211-9.96-.723-.449a42.514 42.514 0 0 0-18.432-5.39c-11.984 0-24.144 8.867-24.144 25.82M407.028-35.472v-39.19h-14.333c-.6 0-.45.512 0 .921a9.324 9.324 0 0 1 3.594 6.308v38.461a2.951 2.951 0 0 0 3.216 3.309h29.917v-9.812zM445.878-35.472v-9.616h18.115V-55.79H445.89v-9.061h20.35v-9.812h-34.694c-.595 0-.431.512 0 .921a9.326 9.326 0 0 1 3.578 6.308v38.461c0 2.345.91 3.311 3.241 3.311h29.223v-9.811zM605.263-74.668v27.605c0 7.577-1.348 12.327-9.236 12.327-7.759 0-10.256-3.962-10.256-12.07V-74.66h-14.223c-.614 0-.465.518 0 .927a9.349 9.349 0 0 1 3.571 6.308v22.253c0 14.011 6.065 21.082 20.83 21.082 14.736 0 19.952-6.536 19.952-21.082v-29.497zM492.423-45.978c.66-2.145 5.212-16.79 5.542-17.866h1.547c.346 1.076 4.902 15.723 5.587 17.866zm13.758-28.69H487.7c-.596 0-.423.518 0 .927a6.525 6.525 0 0 1 1.006 6.694l-14.023 41.384h11.4s2.803-8.967 3.144-10.072h19.016l3.145 10.072h11.429zM634.183-35.472v-9.616h18.115V-55.79h-18.115v-9.061h20.364v-9.812h-34.693c-.602 0-.449.512 0 .921a9.284 9.284 0 0 1 3.578 6.308v38.461c0 2.345.91 3.311 3.23 3.311h29.223v-9.811z" style="fill:#001947;stroke-width:2.24619" transform="matrix(1.6649 0 0 1.5788 -327.906 190.327)"/><path d="m1063.14-26.18 56.155 39.061s46.047-105.324 121.667-157.548v-72.686a471.96 471.96 0 0 0-85.728 126.595c-38.56 18.906-92.094 64.578-92.094 64.578z" style="fill:#e72410;stroke-width:2.24619" transform="matrix(.55208 0 0 .54807 -586.937 119.124)"/><path d="M1114.053 140.786c-18.343-130.28 105.198-313.719 310.351-305.482 0 0-115.306 68.884-159.854 137.393C1300.114 74.15 1388.21 159.13 1388.21 159.13s-106.3-16.847-206.514-103.325c-29.082 23.585-67.644 84.98-67.644 84.98z" style="fill:#1f1f45;stroke-width:2.24619" transform="matrix(.55208 0 0 .54807 -586.937 119.124)"/></svg>