<svg xmlns="http://www.w3.org/2000/svg" id="_레이어_1" version="1.1" viewBox="0 0 951.8 443.4"><defs><linearGradient id="_무제_그라디언트" x1="-204.7" x2="-203.7" y1="606" y2="606" gradientTransform="matrix(158.7 0 0 -158.7 32524.4 96388)" gradientUnits="userSpaceOnUse"><stop offset="0" stop-color="#fff"/><stop offset=".3" stop-color="#fff"/><stop offset="1" stop-color="#989898"/></linearGradient><linearGradient id="_무제_그라디언트_2" x1="-204.8" x2="-203.8" y1="606.1" y2="606.1" gradientTransform="matrix(166.2 0 0 -166.2 34129.1 100802.4)" gradientUnits="userSpaceOnUse"><stop offset="0" stop-color="#b6dcef"/><stop offset="0" stop-color="#b6dcef"/><stop offset="1" stop-color="#00a8e9"/></linearGradient><linearGradient id="_무제_그라디언트_3" x1="-203.5" x2="-202.5" y1="605.1" y2="605.1" gradientTransform="matrix(81.8 0 0 -81.8 16880.5 49607)" gradientUnits="userSpaceOnUse"><stop offset="0" stop-color="#006bb3"/><stop offset="0" stop-color="#006bb3"/><stop offset="1" stop-color="#004c8e"/></linearGradient><linearGradient id="_무제_그라디언트_4" x1="-204.7" x2="-203.7" y1="607.6" y2="607.6" gradientTransform="scale(181.7 -181.7)rotate(-65 -579.057 142.71)" gradientUnits="userSpaceOnUse"><stop offset="0" stop-color="#fff"/><stop offset=".1" stop-color="#fff"/><stop offset=".2" stop-color="#91ccea"/><stop offset=".3" stop-color="#91ccea"/><stop offset=".6" stop-color="#0089cd"/><stop offset=".6" stop-color="#0089cd"/><stop offset="1" stop-color="#0064b3"/></linearGradient><linearGradient id="_무제_그라디언트_5" x1="-204.9" x2="-203.9" y1="606.2" y2="606.2" gradientTransform="matrix(190.2 0 0 -190.2 39054.9 115455.4)" gradientUnits="userSpaceOnUse"><stop offset="0" stop-color="#0080c2"/><stop offset=".3" stop-color="#0080c2"/><stop offset="1" stop-color="#1a1b7d"/></linearGradient><linearGradient id="_무제_그라디언트_6" x1="-203.4" x2="-202.4" y1="605.1" y2="605.1" gradientTransform="matrix(79.1 0 0 -79.1 16411.3 48008.1)" gradientUnits="userSpaceOnUse"><stop offset="0" stop-color="#0056a8"/><stop offset=".3" stop-color="#0056a8"/><stop offset="1" stop-color="#1f3689"/></linearGradient><linearGradient id="_무제_그라디언트_7" x1="-204.5" x2="-203.5" y1="605.9" y2="605.9" gradientTransform="matrix(135.4 0 0 -135.4 27745.6 82401.4)" gradientUnits="userSpaceOnUse"><stop offset="0" stop-color="#006db7"/><stop offset=".3" stop-color="#006db7"/><stop offset="1" stop-color="#004a9a"/></linearGradient><linearGradient id="_무제_그라디언트_8" x1="-204.9" x2="-203.9" y1="606.2" y2="606.2" gradientTransform="matrix(185.9 0 0 -185.9 38201 113090)" gradientUnits="userSpaceOnUse"><stop offset="0" stop-color="#006db7"/><stop offset=".3" stop-color="#006db7"/><stop offset="1" stop-color="#004a9a"/></linearGradient><linearGradient id="_무제_그라디언트_9" x1="-205.7" x2="-204.7" y1="606.8" y2="606.8" gradientTransform="matrix(733.8 0 0 -733.8 151182.7 445577.2)" gradientUnits="userSpaceOnUse"><stop offset="0" stop-color="#0097e0"/><stop offset=".2" stop-color="#003894"/><stop offset="1" stop-color="#003894"/></linearGradient><linearGradient id="_무제_그라디언트_10" x1="-204.5" x2="-203.5" y1="605.9" y2="605.9" gradientTransform="matrix(135.5 0 0 -135.5 27930.6 82359.3)" gradientUnits="userSpaceOnUse"><stop offset="0" stop-color="#007cc6"/><stop offset=".5" stop-color="#1a1b7d"/><stop offset="1" stop-color="#1a1b7d"/></linearGradient><linearGradient id="_무제_그라디언트_11" x1="-197.3" x2="-196.3" y1="609.4" y2="609.4" gradientTransform="scale(28.7 -28.7)rotate(-55 -679.58 103.845)" gradientUnits="userSpaceOnUse"><stop offset="0" stop-color="#fff"/><stop offset=".1" stop-color="#fff"/><stop offset=".5" stop-color="#66cef4"/><stop offset=".5" stop-color="#66cef4"/><stop offset="1" stop-color="#00adec"/></linearGradient><linearGradient id="_무제_그라디언트_12" x1="-207.9" x2="-206.9" y1="604.7" y2="604.7" gradientTransform="matrix(0 -84.1 -84.1 0 51179.1 -17133.1)" gradientUnits="userSpaceOnUse"><stop offset="0" stop-color="#fff"/><stop offset=".5" stop-color="#fff"/><stop offset="1" stop-color="#c9caca"/></linearGradient><linearGradient id="_무제_그라디언트_13" x1="-218.1" x2="-217.1" y1="592.5" y2="592.5" gradientTransform="matrix(0 -13.3 -13.3 0 8278.1 -2585.6)" gradientUnits="userSpaceOnUse"><stop offset="0" stop-color="#fff"/><stop offset=".4" stop-color="#fff"/><stop offset="1" stop-color="#e6e6e6"/></linearGradient><linearGradient id="_무제_그라디언트_14" x1="-208.3" x2="-207.3" y1="604.3" y2="604.3" gradientTransform="matrix(0 -70.4 -70.4 0 43023.4 -14327.1)" gradientUnits="userSpaceOnUse"><stop offset="0" stop-color="#fff"/><stop offset=".6" stop-color="#fff"/><stop offset="1" stop-color="#c9caca"/></linearGradient><linearGradient id="_무제_그라디언트_15" x1="-208.3" x2="-207.3" y1="604.3" y2="604.3" gradientTransform="scale(70.4 -70.4)rotate(90 204.39 407.9)" gradientUnits="userSpaceOnUse"><stop offset="0" stop-color="#fff"/><stop offset=".6" stop-color="#fff"/><stop offset="1" stop-color="#c9caca"/></linearGradient><linearGradient id="_무제_그라디언트_16" x1="-208.3" x2="-207.3" y1="604.3" y2="604.3" gradientTransform="matrix(0 -70.4 -70.4 0 43176.1 -14327.1)" gradientUnits="userSpaceOnUse"><stop offset="0" stop-color="#fff"/><stop offset=".6" stop-color="#fff"/><stop offset="1" stop-color="#c9caca"/></linearGradient><linearGradient id="_무제_그라디언트_17" x1="-208.3" x2="-207.3" y1="604.3" y2="604.3" gradientTransform="matrix(0 -70.4 -70.4 0 43272.8 -14327.1)" gradientUnits="userSpaceOnUse"><stop offset="0" stop-color="#fff"/><stop offset=".6" stop-color="#fff"/><stop offset="1" stop-color="#c9caca"/></linearGradient><linearGradient id="_무제_그라디언트_18" x1="-208.3" x2="-207.3" y1="604.3" y2="604.3" gradientTransform="matrix(0 -70.4 -70.4 0 43360.5 -14327.1)" gradientUnits="userSpaceOnUse"><stop offset="0" stop-color="#fff"/><stop offset=".6" stop-color="#fff"/><stop offset="1" stop-color="#c9caca"/></linearGradient><linearGradient id="_무제_그라디언트_19" x1="-208.3" x2="-207.3" y1="604.3" y2="604.3" gradientTransform="matrix(0 -70.4 -70.4 0 43440.9 -14327.1)" gradientUnits="userSpaceOnUse"><stop offset="0" stop-color="#fff"/><stop offset=".6" stop-color="#fff"/><stop offset="1" stop-color="#c9caca"/></linearGradient><clipPath id="clippath"><path d="M-922.1-757.8h2799.3v1979.3H-922.1z" class="cls-3"/></clipPath><clipPath id="clippath-1"><path d="M-922.1-757.8h2799.3v1979.3H-922.1z" class="cls-3"/></clipPath><clipPath id="clippath-2"><path d="M-922.1-757.8h2799.3v1979.3H-922.1z" class="cls-3"/></clipPath><clipPath id="clippath-3"><path d="M-922.1-757.8h2799.3v1979.3H-922.1z" class="cls-3"/></clipPath><clipPath id="clippath-4"><path d="M91.3 306.5h.7v.6h-.7z" class="cls-3"/></clipPath><clipPath id="clippath-5"><path d="M-922.1-757.8h2799.3v1979.3H-922.1z" class="cls-3"/></clipPath><clipPath id="clippath-6"><path d="M-922.1-757.8h2799.3v1979.3H-922.1z" class="cls-3"/></clipPath><clipPath id="clippath-7"><path d="M-922.1-757.8h2799.3v1979.3H-922.1z" class="cls-3"/></clipPath><clipPath id="clippath-8"><path d="M-922.1-757.8h2799.3v1979.3H-922.1z" class="cls-3"/></clipPath><clipPath id="clippath-9"><path d="M-922.1-757.8h2799.3v1979.3H-922.1z" class="cls-3"/></clipPath><clipPath id="clippath-10"><path d="M-922.1-757.8h2799.3v1979.3H-922.1z" class="cls-3"/></clipPath><clipPath id="clippath-11"><path d="M-922.1-757.8h2799.3v1979.3H-922.1z" class="cls-3"/></clipPath><clipPath id="clippath-12"><path d="M-922.1-757.8h2799.3v1979.3H-922.1z" class="cls-3"/></clipPath><clipPath id="clippath-13"><path d="M-922.1-757.8h2799.3v1979.3H-922.1z" class="cls-3"/></clipPath><clipPath id="clippath-14"><path d="M-922.1-757.8h2799.3v1979.3H-922.1z" class="cls-3"/></clipPath><clipPath id="clippath-15"><path d="M-922.1-757.8h2799.3v1979.3H-922.1z" class="cls-3"/></clipPath><clipPath id="clippath-16"><path d="M-922.1-757.8h2799.3v1979.3H-922.1z" class="cls-3"/></clipPath><clipPath id="clippath-17"><path d="M-922.1-757.8h2799.3v1979.3H-922.1z" class="cls-3"/></clipPath><style>.cls-29,.cls-3,.cls-33,.cls-35,.cls-4,.cls-5{stroke-width:0}.cls-3{fill:none}.cls-4{fill:#1a274c}.cls-5{fill:#4daa58}.cls-29{fill:#17264b}.cls-33{fill:#fff}.cls-35{fill:#0c5b9c}</style></defs><path d="M-13.2-7.1h975.1v469.2H-13.2z" style="stroke-width:0;fill:#040623;fill-opacity:0"/><path d="m216.9 154.5-1.5 1.3c-1 .9-1.9 1.7-2.9 2.6l-63 56.9-50.7 10-79.4-110c-3.2 24.6-27.3 168.6 95.2 207.3 0 .4-.1.8-.1 1.3 0 4.5 4 8.3 9.4 9.4-.3 6.6-.4 13.1 0 19.6 8.4-1.5 17.1-2.3 26.1-2.3 13.3 0 26.1 1.8 38 5.1 4.8-20.3 11.1-40.9 19-61.5 38.6-100.6 105.5-176.1 174-206.3-53.9-.6-113.8 22.5-164 66.8Z" class="cls-33"/><path d="M28 205.9c5 33.2 23.7 56.4 42.8 60s40 3.8 66.6-22c10-9.7 32.8-34.6 47.2-50.5-5.9 5.2-11.6 9.9-17 13.8-20.6 15.1-38 27.7-74.3 18.2-8.3-2.2-15.7-5.7-22.5-10.1-21.7-14.2-35.7-37.6-43.8-55.6 0 0-3.1 19.2 1 46.2" style="stroke-width:0;fill:url(#_무제_그라디언트)"/><g style="clip-path:url(#clippath)"><path d="m47.5 162.1 87.1 10.1z" style="fill:none;stroke:#4daa58;stroke-miterlimit:33.3;stroke-width:.8px"/><path d="m253.9 91.7 18.5-12.4L6.3 15.6l81.4 36.3z" style="stroke-width:0;fill:#1ba9e1"/></g><path d="m223.2 112.4 30.7-20.7L87.7 51.9z" style="stroke-width:0;fill:url(#_무제_그라디언트_2)"/><g style="clip-path:url(#clippath-1)"><path d="M305 103.9c9-4.1 18.3-7.7 27.7-10.8l-1.7.2-58.6-14-18.5 12.4z" style="stroke-width:0;fill:#024ba6"/></g><path d="m223.2 112.4 37.7 16.8c13.8-9.9 28.6-18.4 44.1-25.3l-51.1-12.2z" style="stroke-width:0;fill:url(#_무제_그라디언트_3)"/><g style="clip-path:url(#clippath-2)"><path d="M23.9 36.7 87.7 52 6.3 15.6 0 14.1S12.9 76 27 159.7c4.6 23.8 15.1 29.4 28.2 42.7l-7.6-40.3z" style="stroke-width:0;fill:#0888ca"/></g><path d="m47.5 162.1 7.6 40.3c4.7 4.8 9.9 9.2 15.6 12.9l63.9-43.1 88.5-59.7L87.7 51.9 23.9 36.6 47.5 162Z" style="stroke-width:0;fill:url(#_무제_그라디언트_4)"/><path d="m134.7 172.1-63.9 43.1c6.7 4.4 14.2 7.9 22.5 10.1 36.4 9.6 53.7-3.1 74.3-18.2 5.4-4 11.1-8.6 17-13.8 16.6-14.6 35.7-33.2 59.6-51.5 4.1-3.2 9.7-7.6 16.8-12.7l-37.7-16.8-88.5 59.7Z" style="stroke-width:0;fill:url(#_무제_그라디언트_5)"/><g style="clip-path:url(#clippath-3)"><g style="clip-path:url(#clippath-4)"><path d="M92.1 307.1c-.3-.2-.5-.4-.7-.6z" class="cls-5" style="opacity:.2"/></g><path d="M47.7 281.5c-.9-1.3-1.8-2.7-2.7-4q2.55 18.3 4.8 36.6l36.7 8.4c-14.9-11.7-28-25.2-38.9-41" style="stroke-width:0;fill:#009ddc"/></g><path d="M380.2 87.7c-8.2 3.7-16.2 7.8-23.9 12.3-17.8 11.9-32.8 25.9-48.1 41-2.1 2.1-4.2 4.3-6.3 6.5l37.9 16.9c7.8-26.6 20.7-56.9 41.3-76.8h-.8Z" style="stroke-width:0;fill:url(#_무제_그라디언트_6)"/><g style="clip-path:url(#clippath-5)"><path d="M205.1 349.6c-.2 1.3-.4 2.7-.6 4l4.4-3.1z" style="stroke-width:0;fill:#003984"/></g><path d="m61.7 443.3 32.8-11.5 3.9-2.8 5.1-3.6 81.7-58.1c-38-8.9-71.5-23.6-98.6-44.8l-36.7-8.4c5.5 44.6 9.9 89 11.9 129.2" style="stroke-width:0;fill:url(#_무제_그라디언트_7)"/><g style="clip-path:url(#clippath-6)"><path d="m208.9 350.5-4.4 3.1zM103.5 425.5l81.7-58.1zM61.5 443.4h.2z" class="cls-35"/><path d="M937.5 267.5c-6.3 20.1-16.6 52.7-20 62.9-5 15.1-9.4 26.8-37.2 26.8H308.2l-27.8 9.7-185.9 65-32.8 11.5 27.5-7.7 9.5-2.7L324 369.8h571.4c8.6 0 26-3 32.3-22.5s24.1-79.8 24.1-79.8z" class="cls-29"/></g><path d="M204.5 353.6c-1.6 11.1-1.8 17.4-1.8 17.4-5.9-1.1-11.7-2.3-17.5-3.7l-81.7 58.1-5.1 3.6-3.9 2.8 185.9-65-26-5.9-45.6-10.4-4.4 3.1Z" style="stroke-width:0;fill:url(#_무제_그라디언트_8)"/><g style="clip-path:url(#clippath-7)"><path d="m103.5 425.5-5.1 3.6z" class="cls-35"/><path d="M91.3 306.6c-2.3-1.9-5.2-4.1-8.4-6.7.9.7 1.7 1.5 2.6 2.2 1.9 1.5 3.8 3.1 5.8 4.5" class="cls-5"/><path d="M296.3 145c-20.3 19.4-40.6 43.9-57.9 74.5-36.5 64.7-47.1 112.4-49.6 126.3-.5 2.7-.7 4.2-.7 4.2s-18.7-4.5-42.2-14c-17.3-7-37.1-16.6-53.9-29-.2-.2-.5-.4-.7-.6-2-1.5-3.9-3-5.8-4.5-.9-.7-1.7-1.5-2.6-2.2-11.5-9.5-27.7-24.4-41.4-47.2-12.7-21.1-23.3-49-26.2-85.8 0 0-4.6 58 29.6 110.6.9 1.3 1.8 2.7 2.7 4 10.9 15.7 24 29.3 38.9 41 27.2 21.3 60.6 35.9 98.6 44.8 5.7 1.3 11.5 2.6 17.5 3.7 0 0 .2-6.3 1.8-17.4.2-1.3.4-2.6.6-4 2.3-14 6.7-34.3 15.2-58.9 22.4-64.8 48.7-108.7 81.6-143.2 2.1-2.2 4.2-4.3 6.3-6.5 15.3-15.2 30.3-29.2 48.1-41-21.7 12.6-41.9 27.7-60 45" class="cls-29"/></g><path d="M376.2 240.1c-17.9.5-34.8 31.3-34.8 31.3l-.8-14.7-16.6 11.8-115.1 81.9 45.6 10.4 26 5.9 27.8-9.7h572.1c27.7 0 32.1-11.7 37.2-26.8 3.4-10.2 13.7-42.8 20-62.9l5.2-16.5H707c-23.5 0-40.5 20.7-41.9 25.9v-25.6h-49.7l-11.2 15.1 2.9-15.4h-95.3l-17.6 57h-15.7l17.2-56.4h-56.3l-8.8 26.8h-23.3l23.3-38.3s-16.1-.2-32.1-.2-16 0-22 .2" style="stroke-width:0;fill:url(#_무제_그라디언트_9)"/><path d="M220.3 290.7c-4.5 13.1-8.4 26.4-11.5 39.9-1.4 6.3-2.7 12.6-3.7 19l3.8.9L324 268.6l16.6-11.8-.9-16.7h-12.9c1.4-13.6 2.5-24.6 3.3-30.2 1.3-10.1 4.2-26.9 9.6-45.5l-37.9-16.9c-32.9 34.5-59.1 78.4-81.6 143.2" style="stroke-width:0;fill:url(#_무제_그라디언트_10)"/><g style="clip-path:url(#clippath-8)"><path d="M146.1 191.1c-13.2 11.9-29.9 14.8-37.4 6.5s-2.8-24.6 10.4-36.5 29.9-14.8 37.4-6.5c7.4 8.3 2.8 24.6-10.4 36.5" style="stroke-width:0;fill:#192549"/><path d="M139.9 181.9c-13.2 11.9-29.9 14.8-37.4 6.5s-2.8-24.6 10.4-36.5 29.9-14.8 37.4-6.5c7.4 8.3 2.8 24.6-10.4 36.5" class="cls-33"/><path d="M320.4 46.7c4.7 5.4 11.6 8.5 18.7 8.5 13.9 0 25.1-11.2 25.1-25.1 0-4.1-1-7.9-2.7-11.3l-41.2 27.9Z" style="stroke-width:0;fill:#e52768"/><path d="M339.2 5c9.5 0 18.2 5.4 22.4 13.8l4.2-2.8c-5.3-9.8-15.5-16-26.6-16-16.6 0-30.1 13.5-30.1 30.1 0 7.1 2.5 14 7.2 19.5l4.1-2.8c-4.1-4.6-6.4-10.5-6.3-16.6 0-13.9 11.2-25.1 25.1-25.1" style="stroke-width:0;fill:#00adec"/></g><path d="M314.1 30.1c0 6.4 2.4 12.2 6.3 16.6l41.2-27.9C357.3 10.3 348.7 5 339.2 5c-13.9 0-25.1 11.2-25.1 25.1" style="stroke-width:0;fill:url(#_무제_그라디언트_11)"/><g style="clip-path:url(#clippath-9)"><path d="M316.3 49.5c5.7 6.7 14.1 10.6 22.9 10.6 16.6 0 30.1-13.5 30.1-30.1 0-4.9-1.2-9.7-3.5-14.1l-49.5 33.5Z" style="fill:#004098;stroke-width:0"/><path d="M299 257.7h29.6l9.2 62.9s24.7-43 28.2-48.9c3.6-5.9 9.6-14 20.3-14h20.3s-38.1 63.3-41.7 69c-4.8 7.7-11.4 16.8-23.1 16.8h-28l-14.9-85.7Z" style="stroke-width:0;fill:#1a284e"/><path d="M426.4 311.4h-35.8l4.4-14.9h35.8zM453.2 271l-22.9 72.1h54.4c5 0 11.3-2.8 14.7-15.9h-40l17.7-56.2zM573.7 286.9c6.2 0 13.4-4.8 15.4-15.9h-63.4l-22.6 72.1h54.4c5.2 0 11.6-3.8 14.4-16.2h-40.2c0 .1 4-12.4 4-12.4h35.7l5-16.2h-35.5l3.6-11.2s25.2-.1 29.5-.1M617 315.4c8.2-11.4 17.3-23.9 17.3-23.9l2 23.9zm21.6 27.7h23.6L654 271h-28.1l-53.5 72.1h16.5c8.1 0 12.4-6.1 15.4-10.1.2-.3.7-.9 1.2-1.7h32.2l1 11.7ZM757.8 271h-49c-7.7 0-21.1 4.8-25.2 16.1s-10.3 31.6-11.3 36.3c-2.2 10.3 2.4 19.7 12 19.7h43.6c4 0 11.9-2 14.4-11 2.5-9.1 10.1-31.6 10.1-31.6h-36.5l-5.6 17.2H723l-3.2 9.4h-21.4c-2.7 0-3.2-2-2.1-5.7 1.1-3.8 7.4-24 8.5-27 1.1-2.9 3.5-7.4 8.7-7.4h29.6c4.3 0 11.9-3.2 14.7-15.9M773.6 271s-14.1 45.5-16.5 53.2.9 18.9 13.3 18.9h36.9c4.7 0 18.7-4.8 23.4-19.4 4.8-14.7 17-52.7 17-52.7h-24s-13.8 44.1-15.4 49.3c-1.7 5.2-2.7 6.8-7.1 6.8h-17.9c-2.5 0-4.1-.7-2.1-6.4s15.8-49.6 15.8-49.6h-23.5ZM909.5 286.9c6.1 0 13.4-4.8 15.4-15.9h-63.4l-22.6 72.1h54.4c5.2 0 11.6-3.8 14.4-16.2h-40.2c0 .1 4-12.4 4-12.4h35.7l5-16.2h-35.5l3.6-11.2s25.2-.1 29.5-.1" class="cls-4"/></g><path d="M380.9 253.2c-10.2 0-16.1 7.8-19.6 13.6s-28 48.5-28.2 48.9l-1.2 2.1-9.5-64.6h-27.9l14.6 84.1h27.3c11.2 0 17.5-8.4 22.4-16.4 3.2-5.1 35.5-58.7 40.9-67.7h-18.9Z" style="stroke-width:0;fill:url(#_무제_그라디언트_12)"/><path d="M401.3 252.4H381c-10.7 0-16.8 8.2-20.3 14-3.6 5.9-28.2 48.9-28.2 48.9l-9.2-62.9h-29.6l14.9 85.7h28c11.7 0 18.3-9.1 23.1-16.7 3.6-5.7 41.7-69 41.7-69m-3.1 1.7c-7.1 11.8-37.1 61.5-40.2 66.4-4.9 7.7-11 16-21.7 16h-26.6l-14.3-82.4h26.2l9 61.5.7 4.8 2.4-4.2c.2-.4 24.7-43.1 28.2-48.9 3.5-5.7 9.2-13.2 18.9-13.2z" class="cls-33" style="clip-path:url(#clippath-10)"/><path d="m390.5 292.2-3.9 13.3h34l3.9-13.3z" style="stroke-width:0;fill:url(#_무제_그라디언트_13)"/><path d="M425.7 291.3h-35.8l-4.4 14.9h35.8zm-2.3 1.7-3.4 11.6h-32.3l3.4-11.6z" class="cls-33" style="clip-path:url(#clippath-11)"/><path d="m448.6 266.9-22.4 70.4h53.2c6.4 0 10.9-4.8 13.6-14.3h-40l17.7-56.2h-22.1Z" style="stroke-width:0;fill:url(#_무제_그라디언트_14)"/><path d="M471.8 266h-23.9L425 338.1h54.4c5 0 11.3-2.8 14.7-15.9h-40zm-2.3 1.7-17.1 54-.7 2.2h40c-2.6 8.4-6.8 12.6-12.5 12.6h-52.1l21.9-68.8h20.4Z" class="cls-33" style="clip-path:url(#clippath-12)"/><path d="m521.5 266.9-22.1 70.4h53.2c3 0 10.1-1.4 13.4-14.5h-40.3c0 .1 4.5-14.1 4.5-14.1h35.7l4.5-14.5h-35.5l4.1-12.8h.6s25.2-.1 29.5-.1 12.3-4.4 14.4-14.3h-61.8Z" style="stroke-width:0;fill:url(#_무제_그라디언트_15)"/><path d="M584.3 266h-63.4l-22.6 72.1h54.4c5.2 0 11.6-3.8 14.4-16.2h-40.2c0 .1 4-12.4 4-12.4h35.7l5-16.2h-35.5l3.6-11.2s25.2-.1 29.5-.1c6.1 0 13.4-4.8 15.4-15.9m-2.4 1.6c-2.2 8.7-8.1 12.6-13.3 12.6s-29.5.1-29.5.1h-1.2l-.4 1.2-3.6 11.2-.7 2.2H569l-4 12.9h-35.7l-.4 1.2-4 12.6-.7 2.2h2.3l38.1-.1c-3.2 11.6-9.6 12.9-12.3 12.9h-52.1l21.6-68.8H582Z" class="cls-33" style="clip-path:url(#clippath-13)"/><path d="m620.9 266.9-52.3 70.4h14.8c7.4 0 11.5-5.4 14.4-9.3l1.8-2.4H633l1 11.7h21.9l-8.1-70.4zm8.7 17.4 2.2 27H610z" style="stroke-width:0;fill:url(#_무제_그라디언트_16)"/><path d="M611.7 310.5c8.2-11.4 17.3-23.9 17.3-23.9l2 23.9zm36.9-44.5h-28.1L567 338.1h16.5c8.1 0 12.4-6.1 15.4-10.1.2-.3.7-.9 1.2-1.7h32.2l1 11.7h23.6l-8.2-72.1Zm-40.2 46.1h24.3v-1.8c-.1 0-2.1-23.9-2.1-23.9l-.4-4.5-2.6 3.6s-9.1 12.5-17.3 23.9l-1.9 2.6Zm38.7-44.4 7.9 68.8h-20.2l-.8-10.2v-1.5h-34.7l-.5.7-1.2 1.7-.3.4c-2.8 3.8-6.7 9-13.7 9h-13.2l51-68.8h25.8Z" class="cls-33" style="clip-path:url(#clippath-14)"/><path d="M703.1 266.9c-7.8 0-20.5 4.8-24.4 15.5-4 11.3-10.3 31.6-11.3 36.2-1.2 5.7-.3 11.2 2.5 14.7 2.1 2.6 5.1 4 8.7 4h43.6c1.8 0 10.8-.5 13.6-10.4 2.2-7.9 8.2-25.9 9.7-30.5h-34.7l-5.1 15.5h12.7l-3.8 11h-22c-1.3 0-2.2-.4-2.8-1.2-.8-1.1-.9-2.9 0-5.6 1-3.4 7.4-24 8.5-27 2.5-6.6 6.5-7.9 9.4-7.9h29.6c4.7 0 11-3.8 13.6-14.3h-48Z" style="stroke-width:0;fill:url(#_무제_그라디언트_17)"/><path d="M752.1 266h-49c-7.7 0-21.1 4.8-25.1 16.1-4.1 11.3-10.3 31.6-11.3 36.3-2.2 10.3 2.4 19.7 12 19.7h43.6c4 0 11.9-2 14.4-11 2.5-9.1 10.1-31.6 10.1-31.6h-36.5l-5.6 17.2h12.7l-3.2 9.4h-21.4c-2.7 0-3.2-2-2.1-5.7 1.1-3.8 7.4-24 8.5-27s3.5-7.4 8.7-7.4h29.6c4.3 0 11.9-3.2 14.7-15.9m-2.2 1.6c-2.7 9.3-8.3 12.6-12.5 12.6h-29.6c-3.2 0-7.5 1.5-10.2 8.5-1.2 3.1-7.5 23.6-8.6 27.1-.9 3-.8 5 .2 6.3.5.7 1.5 1.5 3.5 1.5h22.6l.4-1.1 3.2-9.4.8-2.2H707l4.5-13.9h33c-2 5.9-7.3 22.1-9.4 29.5-2.6 9.3-11.1 9.8-12.8 9.8h-43.6c-3.3 0-6.1-1.3-8-3.7-2.7-3.3-3.6-8.6-2.4-14 1-4.7 7.2-24.8 11.3-36.1 3.7-10.3 16-15 23.6-15h46.9Z" class="cls-33" style="clip-path:url(#clippath-15)"/><path d="M819.1 266.9c-1.6 5.2-13.7 43.9-15.3 48.7-1.7 5.1-2.9 7.3-7.9 7.3H778c-1.2 0-2.5-.1-3.3-1.2-.8-1.2-.7-3.1.4-6.3 1.8-5.2 13.3-41.7 15.4-48.5h-21.7c-1.7 5.3-14.1 45.5-16.3 52.6-1.4 4.5-.6 9.6 1.9 13 2.3 3.1 6 4.8 10.6 4.8h36.9c4.4 0 18-4.5 22.7-18.8l16.7-51.6H819Z" style="stroke-width:0;fill:url(#_무제_그라디언트_18)"/><path d="M842.5 266h-24s-13.7 44.1-15.4 49.3-2.7 6.8-7.1 6.8h-17.9c-2.5 0-4.1-.7-2.1-6.4s15.8-49.6 15.8-49.6h-23.5s-14.1 45.5-16.5 53.2.9 18.9 13.3 18.9H802c4.8 0 18.7-4.8 23.5-19.4s17-52.7 17-52.7m-2.3 1.6-16.3 50.5c-4.5 13.9-17.6 18.3-21.9 18.3h-36.9c-4.4 0-7.8-1.5-9.9-4.4-2.4-3.2-3.1-8-1.8-12.3 2.1-7 13.9-44.9 16.1-52.1h20c-2.8 8.9-13.4 42.5-15.1 47.4-1.2 3.5-1.3 5.7-.3 7.1 1.1 1.5 3.1 1.5 4 1.5H796c5.5 0 6.9-2.5 8.7-7.9 1.5-4.6 12.9-41.1 15.1-48.1h20.5Z" class="cls-33" style="clip-path:url(#clippath-16)"/><path d="m857.2 266.9-22.1 70.4h53.2c3 0 10.1-1.4 13.3-14.5h-40.3c0 .1 4.5-14.1 4.5-14.1h35.7l4.5-14.5h-35.5l4.1-12.8h.6s25.2-.1 29.5-.1 12.3-4.4 14.4-14.3h-61.8Z" style="stroke-width:0;fill:url(#_무제_그라디언트_19)"/><path d="M920.1 266h-63.4l-22.6 72.1h54.3c5.2 0 11.6-3.8 14.4-16.2h-40.2c0 .1 4-12.4 4-12.4h35.7l5-16.2h-35.5l3.6-11.2s25.2-.1 29.5-.1c6.1 0 13.4-4.8 15.4-15.9m-2.3 1.6c-2.2 8.7-8.1 12.6-13.3 12.6s-29.5.1-29.5.1H874l-.4 1.2-3.6 11.2-.7 2.2h35.5l-4 12.9h-35.7l-.4 1.2-4 12.6-.7 2.2h2.3l38.1-.1c-3.2 11.6-9.6 12.9-12.3 12.9H836l21.6-68.8h60.2Z" class="cls-33" style="clip-path:url(#clippath-17)"/></svg>